<?xml version="1.0" encoding="UTF-8" standalone="no"?>
<!DOCTYPE svg PUBLIC "-//W3C//DTD SVG 1.1//EN"
 "http://www.w3.org/Graphics/SVG/1.1/DTD/svg11.dtd">
<!-- Generated by graphviz version 12.1.1 (20240910.0053)
 -->
<!-- Title: INFRA Pages: 1 -->
<svg width="1483pt" height="404pt"
 viewBox="0.00 0.00 1482.80 404.00" xmlns="http://www.w3.org/2000/svg" xmlns:xlink="http://www.w3.org/1999/xlink">
<g id="graph0" class="graph" transform="scale(1 1) rotate(0) translate(4 400)">
<title>INFRA</title>
<polygon fill="white" stroke="none" points="-4,4 -4,-400 1478.8,-400 1478.8,4 -4,4"/>
<!-- users -->
<g id="node1" class="node">
<title>users</title>
<path fill="#ffcfb3" stroke="black" stroke-width="2" d="M156.8,-65.45C156.8,-69.07 121.66,-72 78.4,-72 35.14,-72 0,-69.07 0,-65.45 0,-65.45 0,-6.55 0,-6.55 0,-2.93 35.14,0 78.4,0 121.66,0 156.8,-2.93 156.8,-6.55 156.8,-6.55 156.8,-65.45 156.8,-65.45"/>
<path fill="none" stroke="black" stroke-width="2" d="M156.8,-65.45C156.8,-61.84 121.66,-58.91 78.4,-58.91 35.14,-58.91 0,-61.84 0,-65.45"/>
<text text-anchor="middle" x="78.4" y="-40.2" font-family="Arial" font-size="14.00">users</text>
<text text-anchor="middle" x="78.4" y="-23.4" font-family="Arial" font-size="14.00">(AWS::RDS::DBTable)</text>
</g>
<!-- password_reset_tokens -->
<g id="node2" class="node">
<title>password_reset_tokens</title>
<path fill="#ffcfb3" stroke="black" stroke-width="2" d="M425.33,-389.45C425.33,-393.07 388.61,-396 343.4,-396 298.19,-396 261.47,-393.07 261.47,-389.45 261.47,-389.45 261.47,-330.55 261.47,-330.55 261.47,-326.93 298.19,-324 343.4,-324 388.61,-324 425.33,-326.93 425.33,-330.55 425.33,-330.55 425.33,-389.45 425.33,-389.45"/>
<path fill="none" stroke="black" stroke-width="2" d="M425.33,-389.45C425.33,-385.84 388.61,-382.91 343.4,-382.91 298.19,-382.91 261.47,-385.84 261.47,-389.45"/>
<text text-anchor="middle" x="343.4" y="-364.2" font-family="Arial" font-size="14.00">password_reset_tokens</text>
<text text-anchor="middle" x="343.4" y="-347.4" font-family="Arial" font-size="14.00">(AWS::RDS::DBTable)</text>
</g>
<!-- sessions -->
<g id="node3" class="node">
<title>sessions</title>
<path fill="#ffcfb3" stroke="black" stroke-width="2" d="M599.8,-389.45C599.8,-393.07 564.66,-396 521.4,-396 478.14,-396 443,-393.07 443,-389.45 443,-389.45 443,-330.55 443,-330.55 443,-326.93 478.14,-324 521.4,-324 564.66,-324 599.8,-326.93 599.8,-330.55 599.8,-330.55 599.8,-389.45 599.8,-389.45"/>
<path fill="none" stroke="black" stroke-width="2" d="M599.8,-389.45C599.8,-385.84 564.66,-382.91 521.4,-382.91 478.14,-382.91 443,-385.84 443,-389.45"/>
<text text-anchor="middle" x="521.4" y="-364.2" font-family="Arial" font-size="14.00">sessions</text>
<text text-anchor="middle" x="521.4" y="-347.4" font-family="Arial" font-size="14.00">(AWS::RDS::DBTable)</text>
</g>
<!-- cache -->
<g id="node4" class="node">
<title>cache</title>
<path fill="#ffcfb3" stroke="black" stroke-width="2" d="M774.8,-389.45C774.8,-393.07 739.66,-396 696.4,-396 653.14,-396 618,-393.07 618,-389.45 618,-389.45 618,-330.55 618,-330.55 618,-326.93 653.14,-324 696.4,-324 739.66,-324 774.8,-326.93 774.8,-330.55 774.8,-330.55 774.8,-389.45 774.8,-389.45"/>
<path fill="none" stroke="black" stroke-width="2" d="M774.8,-389.45C774.8,-385.84 739.66,-382.91 696.4,-382.91 653.14,-382.91 618,-385.84 618,-389.45"/>
<text text-anchor="middle" x="696.4" y="-364.2" font-family="Arial" font-size="14.00">cache</text>
<text text-anchor="middle" x="696.4" y="-347.4" font-family="Arial" font-size="14.00">(AWS::RDS::DBTable)</text>
</g>
<!-- cache_locks -->
<g id="node5" class="node">
<title>cache_locks</title>
<path fill="#ffcfb3" stroke="black" stroke-width="2" d="M949.8,-389.45C949.8,-393.07 914.66,-396 871.4,-396 828.14,-396 793,-393.07 793,-389.45 793,-389.45 793,-330.55 793,-330.55 793,-326.93 828.14,-324 871.4,-324 914.66,-324 949.8,-326.93 949.8,-330.55 949.8,-330.55 949.8,-389.45 949.8,-389.45"/>
<path fill="none" stroke="black" stroke-width="2" d="M949.8,-389.45C949.8,-385.84 914.66,-382.91 871.4,-382.91 828.14,-382.91 793,-385.84 793,-389.45"/>
<text text-anchor="middle" x="871.4" y="-364.2" font-family="Arial" font-size="14.00">cache_locks</text>
<text text-anchor="middle" x="871.4" y="-347.4" font-family="Arial" font-size="14.00">(AWS::RDS::DBTable)</text>
</g>
<!-- queued_jobs -->
<g id="node6" class="node">
<title>queued_jobs</title>
<path fill="#ffcfb3" stroke="black" stroke-width="2" d="M1124.8,-389.45C1124.8,-393.07 1089.66,-396 1046.4,-396 1003.14,-396 968,-393.07 968,-389.45 968,-389.45 968,-330.55 968,-330.55 968,-326.93 1003.14,-324 1046.4,-324 1089.66,-324 1124.8,-326.93 1124.8,-330.55 1124.8,-330.55 1124.8,-389.45 1124.8,-389.45"/>
<path fill="none" stroke="black" stroke-width="2" d="M1124.8,-389.45C1124.8,-385.84 1089.66,-382.91 1046.4,-382.91 1003.14,-382.91 968,-385.84 968,-389.45"/>
<text text-anchor="middle" x="1046.4" y="-364.2" font-family="Arial" font-size="14.00">queued_jobs</text>
<text text-anchor="middle" x="1046.4" y="-347.4" font-family="Arial" font-size="14.00">(AWS::RDS::DBTable)</text>
</g>
<!-- queued_job_batches -->
<g id="node7" class="node">
<title>queued_job_batches</title>
<path fill="#ffcfb3" stroke="black" stroke-width="2" d="M1299.8,-389.45C1299.8,-393.07 1264.66,-396 1221.4,-396 1178.14,-396 1143,-393.07 1143,-389.45 1143,-389.45 1143,-330.55 1143,-330.55 1143,-326.93 1178.14,-324 1221.4,-324 1264.66,-324 1299.8,-326.93 1299.8,-330.55 1299.8,-330.55 1299.8,-389.45 1299.8,-389.45"/>
<path fill="none" stroke="black" stroke-width="2" d="M1299.8,-389.45C1299.8,-385.84 1264.66,-382.91 1221.4,-382.91 1178.14,-382.91 1143,-385.84 1143,-389.45"/>
<text text-anchor="middle" x="1221.4" y="-364.2" font-family="Arial" font-size="14.00">queued_job_batches</text>
<text text-anchor="middle" x="1221.4" y="-347.4" font-family="Arial" font-size="14.00">(AWS::RDS::DBTable)</text>
</g>
<!-- queued_failed_jobs -->
<g id="node8" class="node">
<title>queued_failed_jobs</title>
<path fill="#ffcfb3" stroke="black" stroke-width="2" d="M1474.8,-389.45C1474.8,-393.07 1439.66,-396 1396.4,-396 1353.14,-396 1318,-393.07 1318,-389.45 1318,-389.45 1318,-330.55 1318,-330.55 1318,-326.93 1353.14,-324 1396.4,-324 1439.66,-324 1474.8,-326.93 1474.8,-330.55 1474.8,-330.55 1474.8,-389.45 1474.8,-389.45"/>
<path fill="none" stroke="black" stroke-width="2" d="M1474.8,-389.45C1474.8,-385.84 1439.66,-382.91 1396.4,-382.91 1353.14,-382.91 1318,-385.84 1318,-389.45"/>
<text text-anchor="middle" x="1396.4" y="-364.2" font-family="Arial" font-size="14.00">queued_failed_jobs</text>
<text text-anchor="middle" x="1396.4" y="-347.4" font-family="Arial" font-size="14.00">(AWS::RDS::DBTable)</text>
</g>
<!-- employers -->
<g id="node9" class="node">
<title>employers</title>
<path fill="#ffcfb3" stroke="black" stroke-width="2" d="M156.8,-173.45C156.8,-177.07 121.66,-180 78.4,-180 35.14,-180 0,-177.07 0,-173.45 0,-173.45 0,-114.55 0,-114.55 0,-110.93 35.14,-108 78.4,-108 121.66,-108 156.8,-110.93 156.8,-114.55 156.8,-114.55 156.8,-173.45 156.8,-173.45"/>
<path fill="none" stroke="black" stroke-width="2" d="M156.8,-173.45C156.8,-169.84 121.66,-166.91 78.4,-166.91 35.14,-166.91 0,-169.84 0,-173.45"/>
<text text-anchor="middle" x="78.4" y="-148.2" font-family="Arial" font-size="14.00">employers</text>
<text text-anchor="middle" x="78.4" y="-131.4" font-family="Arial" font-size="14.00">(AWS::RDS::DBTable)</text>
</g>
<!-- employers&#45;&gt;users -->
<g id="edge1" class="edge">
<title>employers&#45;&gt;users</title>
<path fill="none" stroke="black" d="M78.4,-107.7C78.4,-99.93 78.4,-91.57 78.4,-83.43"/>
<polygon fill="black" stroke="black" points="81.9,-83.66 78.4,-73.66 74.9,-83.66 81.9,-83.66"/>
</g>
<!-- jobs -->
<g id="node10" class="node">
<title>jobs</title>
<path fill="#ffcfb3" stroke="black" stroke-width="2" d="M156.8,-281.45C156.8,-285.07 121.66,-288 78.4,-288 35.14,-288 0,-285.07 0,-281.45 0,-281.45 0,-222.55 0,-222.55 0,-218.93 35.14,-216 78.4,-216 121.66,-216 156.8,-218.93 156.8,-222.55 156.8,-222.55 156.8,-281.45 156.8,-281.45"/>
<path fill="none" stroke="black" stroke-width="2" d="M156.8,-281.45C156.8,-277.84 121.66,-274.91 78.4,-274.91 35.14,-274.91 0,-277.84 0,-281.45"/>
<text text-anchor="middle" x="78.4" y="-256.2" font-family="Arial" font-size="14.00">jobs</text>
<text text-anchor="middle" x="78.4" y="-239.4" font-family="Arial" font-size="14.00">(AWS::RDS::DBTable)</text>
</g>
<!-- jobs&#45;&gt;employers -->
<g id="edge2" class="edge">
<title>jobs&#45;&gt;employers</title>
<path fill="none" stroke="black" d="M78.4,-215.7C78.4,-207.93 78.4,-199.57 78.4,-191.43"/>
<polygon fill="black" stroke="black" points="81.9,-191.66 78.4,-181.66 74.9,-191.66 81.9,-191.66"/>
</g>
<!-- tags -->
<g id="node11" class="node">
<title>tags</title>
<path fill="#ffcfb3" stroke="black" stroke-width="2" d="M331.8,-281.45C331.8,-285.07 296.66,-288 253.4,-288 210.14,-288 175,-285.07 175,-281.45 175,-281.45 175,-222.55 175,-222.55 175,-218.93 210.14,-216 253.4,-216 296.66,-216 331.8,-218.93 331.8,-222.55 331.8,-222.55 331.8,-281.45 331.8,-281.45"/>
<path fill="none" stroke="black" stroke-width="2" d="M331.8,-281.45C331.8,-277.84 296.66,-274.91 253.4,-274.91 210.14,-274.91 175,-277.84 175,-281.45"/>
<text text-anchor="middle" x="253.4" y="-256.2" font-family="Arial" font-size="14.00">tags</text>
<text text-anchor="middle" x="253.4" y="-239.4" font-family="Arial" font-size="14.00">(AWS::RDS::DBTable)</text>
</g>
<!-- job_tag -->
<g id="node12" class="node">
<title>job_tag</title>
<path fill="#ffcfb3" stroke="black" stroke-width="2" d="M243.8,-389.45C243.8,-393.07 208.66,-396 165.4,-396 122.14,-396 87,-393.07 87,-389.45 87,-389.45 87,-330.55 87,-330.55 87,-326.93 122.14,-324 165.4,-324 208.66,-324 243.8,-326.93 243.8,-330.55 243.8,-330.55 243.8,-389.45 243.8,-389.45"/>
<path fill="none" stroke="black" stroke-width="2" d="M243.8,-389.45C243.8,-385.84 208.66,-382.91 165.4,-382.91 122.14,-382.91 87,-385.84 87,-389.45"/>
<text text-anchor="middle" x="165.4" y="-364.2" font-family="Arial" font-size="14.00">job_tag</text>
<text text-anchor="middle" x="165.4" y="-347.4" font-family="Arial" font-size="14.00">(AWS::RDS::DBTable)</text>
</g>
<!-- job_tag&#45;&gt;jobs -->
<g id="edge3" class="edge">
<title>job_tag&#45;&gt;jobs</title>
<path fill="none" stroke="black" d="M136.43,-323.7C129.39,-315.12 121.77,-305.84 114.44,-296.91"/>
<polygon fill="black" stroke="black" points="117.25,-294.82 108.2,-289.31 111.84,-299.26 117.25,-294.82"/>
</g>
<!-- job_tag&#45;&gt;tags -->
<g id="edge4" class="edge">
<title>job_tag&#45;&gt;tags</title>
<path fill="none" stroke="black" d="M194.7,-323.7C201.83,-315.12 209.53,-305.84 216.94,-296.91"/>
<polygon fill="black" stroke="black" points="219.56,-299.24 223.26,-289.31 214.18,-294.77 219.56,-299.24"/>
</g>
</g>
</svg>
